# xmcd
#
# Track frame offsets: 
#        150
#        13402
#        25885
#        39255
#        54402
#        65210
#        80702
#        96017
#        114295
#        129252
#        139822
#        151410
#        161450
#        175537
#        187617
#        199367
#        211180
#        225945
#        239862
#        258632
#
# Disc length: 3630 seconds
#
# Revision: 0
# Processed by: cddbd v1.4PL0 Copyright (c) Steve Scherf et al.
# Submitted via: ExactAudioCopy v0.90a11
#
DISCID=0b0e2c14
DTITLE=Kenny Rogers - For the good times
DYEAR=1900
DGENRE=
TTITLE0=Ruby, don't take your love to town
TTITLE1=Reuben James
TTITLE2=Shine on Ruby mountain
TTITLE3=Just dropped in
TTITLE4=She even woke me up to say goodbye
TTITLE5=My washington woman
TTITLE6=For the good times
TTITLE7=Something's burning
TTITLE8=Heed the call
TTITLE9=We all got to help eachother
TTITLE10=Poem for my little lady
TTITLE11=Where does rosie go?
TTITLE12=Sunshine
TTITLE13=Me and bobby Mcgee
TTITLE14=Calico Silver
TTITLE15=Elvira
TTITLE16=After all
TTITLE17=Molly
TTITLE18=The king of oak street
TTITLE19=I'm gonna sing you a sad song susie
EXTD=
EXTT0=
EXTT1=
EXTT2=
EXTT3=
EXTT4=
EXTT5=
EXTT6=
EXTT7=
EXTT8=
EXTT9=
EXTT10=
EXTT11=
EXTT12=
EXTT13=
EXTT14=
EXTT15=
EXTT16=
EXTT17=
EXTT18=
EXTT19=
PLAYORDER=
